<svg width="104" height="104" viewBox="0 0 104 104" fill="none" xmlns="http://www.w3.org/2000/svg">
<path d="M52 0C23.2839 0 0 23.2839 0 52C0 80.7161 23.2839 104 52 104C80.7161 104 104 80.7161 104 52C104 23.2839 80.7161 0 52 0ZM82.5268 82.5268C78.5571 86.4964 73.9375 89.6071 68.7955 91.7893C63.4911 94.0411 57.8384 95.1786 52 95.1786C46.1616 95.1786 40.5089 94.0411 35.1929 91.7893C30.0587 89.621 25.3951 86.4751 21.4616 82.5268C17.492 78.5571 14.3813 73.9375 12.1991 68.7955C9.95893 63.4911 8.82143 57.8384 8.82143 52C8.82143 46.1616 9.95893 40.5089 12.2107 35.1929C14.379 30.0587 17.5249 25.3951 21.4732 21.4616C25.4429 17.492 30.0625 14.3813 35.2045 12.1991C40.5089 9.95893 46.1616 8.82143 52 8.82143C57.8384 8.82143 63.4911 9.95893 68.8071 12.2107C73.9413 14.379 78.6049 17.5249 82.5384 21.4732C86.508 25.4429 89.6188 30.0625 91.8009 35.2045C94.0411 40.5089 95.1786 46.1616 95.1786 52C95.1786 57.8384 94.0411 63.4911 91.7893 68.8071C89.6236 73.9393 86.4773 78.5996 82.5268 82.5268Z" fill="black"/>
</svg>
