<svg width="256" height="256" viewBox="0 0 256 256" fill="none" xmlns="http://www.w3.org/2000/svg">
<rect width="256" height="256" fill="white"/>
<path d="M128 44C81.6125 44 44 81.6125 44 128C44 174.387 81.6125 212 128 212C174.387 212 212 174.387 212 128C212 81.6125 174.387 44 128 44ZM177.312 177.312C170.9 183.725 163.438 188.75 155.131 192.275C146.563 195.912 137.431 197.75 128 197.75C118.569 197.75 109.438 195.912 100.85 192.275C92.5563 188.772 85.0228 183.691 78.6687 177.312C72.2562 170.9 67.2313 163.438 63.7063 155.131C60.0875 146.563 58.25 137.431 58.25 128C58.25 118.569 60.0875 109.438 63.725 100.85C67.2276 92.5563 72.3094 85.0228 78.6875 78.6687C85.1 72.2562 92.5625 67.2313 100.869 63.7063C109.438 60.0875 118.569 58.25 128 58.25C137.431 58.25 146.562 60.0875 155.15 63.725C163.444 67.2276 170.977 72.3094 177.331 78.6875C183.744 85.1 188.769 92.5625 192.294 100.869C195.913 109.438 197.75 118.569 197.75 128C197.75 137.431 195.912 146.562 192.275 155.15C188.777 163.44 183.694 170.969 177.312 177.312Z" fill="black"/>
</svg>
